<?xml version="1.0" standalone="no"?>
<!DOCTYPE svg PUBLIC "-//W3C//DTD SVG 20010904//EN"
 "http://www.w3.org/TR/2001/REC-SVG-20010904/DTD/svg10.dtd">
<svg version="1.0" xmlns="http://www.w3.org/2000/svg"
 width="819.000000pt" height="819.000000pt" viewBox="0 0 819.000000 819.000000"
 preserveAspectRatio="xMidYMid meet">
<metadata>
Created by potrace 1.14, written by Peter Selinger 2001-2017
</metadata>
<g transform="translate(0.000000,819.000000) scale(0.100000,-0.100000)"
fill="#000000" stroke="none">
<path d="M5710 7522 c0 -4 -27 -7 -60 -7 -33 1 -60 -3 -60 -8 0 -4 -6 -5 -12
0 -18 11 -38 13 -38 3 0 -9 -26 -7 -36 3 -4 3 -15 2 -25 -4 -14 -7 -19 -6 -19
3 0 9 -3 9 -8 2 -4 -6 -32 -12 -62 -13 -71 -4 -145 -9 -145 -11 0 -2 -110 -11
-162 -13 -29 -1 -53 -4 -53 -7 0 -4 -19 -6 -42 -5 -24 0 -47 -2 -53 -4 -10 -6
-46 -9 -122 -14 -24 -1 -43 -6 -43 -10 0 -5 -4 -5 -10 -2 -5 3 -10 0 -10 -7 0
-9 -3 -9 -8 -2 -8 12 -42 15 -42 4 0 -4 -8 -7 -17 -7 -69 0 -94 -4 -87 -14 4
-8 0 -8 -15 0 -14 8 -21 8 -21 1 0 -6 -11 -8 -25 -6 -14 3 -25 1 -25 -3 0 -4
-15 -8 -32 -9 -43 -2 -71 -7 -83 -13 -6 -3 -19 -5 -30 -5 -11 1 -26 -6 -33
-14 -8 -8 -11 -9 -7 -2 7 14 -11 17 -19 3 -3 -5 -15 -7 -26 -4 -13 3 -20 0
-20 -8 0 -11 -2 -11 -10 1 -8 12 -10 12 -10 1 0 -8 -7 -11 -20 -8 -11 3 -18 2
-15 -3 4 -7 -88 -25 -107 -22 -5 1 -8 -2 -8 -6 0 -4 -15 -9 -32 -10 -18 -2
-37 -7 -42 -12 -4 -4 -15 -6 -22 -3 -8 3 -14 0 -14 -5 0 -6 -9 -9 -20 -7 -11
2 -20 0 -20 -4 0 -4 -6 -8 -12 -9 -11 -1 -23 -3 -71 -11 -5 0 -6 -5 -3 -10 3
-5 -8 -7 -24 -6 -17 1 -30 -2 -30 -7 0 -5 -4 -6 -10 -3 -5 3 -10 2 -10 -3 0
-5 -7 -9 -15 -10 -8 -1 -22 -3 -30 -4 -8 -1 -15 -4 -15 -8 0 -3 -9 -6 -20 -7
-11 -1 -34 -9 -50 -17 -17 -8 -28 -10 -24 -5 4 7 0 7 -12 1 -78 -40 -104 -50
-104 -40 0 7 -7 5 -17 -4 -28 -24 -47 -33 -38 -19 4 8 -2 7 -17 -3 -14 -9 -28
-13 -31 -9 -4 3 -7 1 -7 -6 0 -8 -7 -11 -15 -7 -8 3 -15 1 -15 -4 0 -5 -16
-12 -35 -16 -19 -3 -38 -10 -41 -15 -3 -5 -10 -7 -15 -4 -5 4 -12 -1 -15 -10
-5 -13 -8 -14 -15 -3 -6 10 -11 9 -23 -7 -9 -11 -16 -16 -16 -11 0 5 -7 3 -15
-4 -9 -7 -18 -10 -21 -7 -4 3 -13 0 -21 -8 -8 -8 -23 -15 -33 -15 -10 0 -22
-5 -25 -10 -4 -6 -11 -8 -16 -5 -5 4 -9 1 -9 -5 0 -7 -7 -10 -15 -6 -8 3 -14
0 -12 -7 1 -7 -7 -11 -20 -9 -13 2 -23 -2 -23 -8 0 -6 -5 -8 -10 -5 -5 3 -10
2 -10 -4 0 -6 -7 -8 -15 -5 -8 4 -15 1 -15 -5 0 -6 -9 -11 -21 -11 -11 0 -18
-4 -14 -9 3 -6 -4 -8 -15 -6 -11 2 -20 0 -20 -4 0 -8 -78 -44 -97 -44 -7 0 -9
-5 -6 -10 4 -6 -1 -8 -11 -4 -9 4 -15 3 -12 -2 3 -5 -2 -15 -11 -22 -12 -10
-14 -10 -9 -1 4 6 2 12 -3 12 -6 0 -11 -5 -11 -11 0 -5 -4 -7 -10 -4 -5 3 -10
1 -10 -4 0 -6 -9 -11 -20 -11 -10 0 -24 -8 -29 -17 -6 -10 -11 -15 -11 -11 0
4 -12 1 -27 -7 -15 -8 -31 -11 -36 -8 -6 3 -7 1 -3 -5 6 -11 -6 -16 -26 -13
-5 0 -8 -3 -8 -9 0 -5 -7 -10 -15 -10 -8 0 -15 -5 -15 -11 0 -5 -4 -7 -10 -4
-5 3 -10 3 -10 -2 0 -11 -51 -34 -62 -27 -5 3 -7 1 -6 -4 2 -6 -1 -10 -5 -10
-5 -1 -15 -9 -23 -19 -13 -17 -14 -17 -8 2 6 18 5 17 -10 -2 -10 -13 -24 -23
-32 -23 -8 0 -14 -4 -14 -10 0 -5 -7 -10 -15 -10 -8 0 -15 -5 -15 -11 0 -5 -4
-8 -9 -5 -5 3 -14 -1 -21 -9 -7 -8 -16 -13 -20 -10 -4 3 -11 -2 -14 -11 -3 -9
-12 -14 -20 -11 -7 3 -20 -3 -29 -14 -9 -10 -13 -19 -9 -19 4 0 -8 -10 -25
-21 -18 -12 -31 -24 -28 -29 2 -4 -6 -19 -18 -32 -13 -14 -21 -30 -19 -36 2
-7 -1 -12 -8 -12 -6 0 -8 -4 -5 -10 3 -5 1 -10 -6 -10 -7 0 -10 -3 -7 -6 4 -3
0 -21 -8 -40 -8 -19 -11 -34 -8 -34 4 0 2 -6 -3 -12 -6 -7 -9 -21 -8 -30 2
-10 0 -18 -5 -18 -5 0 -7 -8 -5 -17 1 -10 -2 -28 -6 -40 -6 -16 -5 -23 4 -23
8 0 7 -4 -3 -10 -12 -8 -12 -10 -1 -10 9 0 10 -4 4 -12 -13 -16 -13 -48 -1
-48 5 0 6 -6 2 -12 -7 -11 -10 -54 -4 -60 2 -3 11 -70 13 -100 1 -10 4 -18 7
-18 3 0 6 -10 7 -22 1 -11 6 -24 11 -27 5 -3 8 -14 6 -23 -1 -10 2 -18 7 -18
6 0 7 -4 4 -10 -3 -5 -1 -10 5 -10 6 0 8 -4 5 -10 -3 -5 -1 -10 5 -10 6 0 9
-4 6 -9 -3 -5 1 -14 9 -21 8 -7 12 -16 9 -21 -3 -5 0 -9 7 -9 9 0 9 -3 0 -14
-9 -11 -8 -14 5 -12 10 0 18 -7 20 -19 2 -11 8 -21 13 -23 6 -2 11 -10 11 -18
0 -8 5 -14 11 -14 5 0 8 -4 4 -9 -3 -5 -1 -12 5 -16 6 -4 7 -11 4 -17 -4 -6
-3 -8 3 -5 5 3 26 -30 47 -74 21 -43 42 -79 47 -79 5 0 9 -3 8 -7 -2 -15 13
-53 21 -53 5 0 11 -14 15 -30 4 -18 11 -27 17 -24 7 4 8 2 4 -5 -4 -6 0 -18 9
-27 9 -9 14 -23 11 -30 -3 -8 0 -13 7 -11 7 1 11 -4 10 -10 -2 -7 2 -13 7 -13
6 0 10 -6 10 -14 0 -8 6 -21 13 -28 20 -22 21 -50 0 -48 -10 1 -20 1 -23 0 -3
-1 -23 -4 -45 -5 -22 -2 -40 -4 -40 -5 0 -1 -20 -3 -45 -5 -25 -2 -45 -4 -45
-5 0 -1 -13 -3 -30 -4 -87 -8 -162 -19 -179 -28 -13 -7 -16 -7 -12 1 5 8 0 8
-16 2 -13 -4 -31 -7 -40 -6 -10 2 -18 0 -18 -5 0 -4 -13 -6 -30 -5 -16 1 -30
-1 -30 -5 0 -4 -13 -6 -30 -5 -16 1 -30 -1 -30 -5 0 -6 -11 -7 -80 -12 -16 -1
-30 -4 -30 -8 0 -3 -18 -5 -40 -4 -22 0 -40 -3 -40 -8 0 -5 -11 -6 -25 -4 -14
3 -25 0 -25 -5 0 -6 -9 -8 -19 -4 -11 3 -23 1 -26 -6 -6 -8 -10 -7 -16 2 -5 8
-9 9 -9 4 0 -6 -14 -12 -31 -13 -17 -1 -39 -7 -49 -12 -11 -6 -21 -5 -30 3
-10 9 -11 9 -6 0 7 -12 3 -14 -36 -17 -7 -1 -19 -7 -26 -14 -8 -7 -17 -10 -22
-7 -5 3 -11 1 -15 -5 -4 -6 -11 -7 -17 -4 -7 4 -8 2 -4 -4 4 -7 2 -12 -3 -12
-6 0 -13 0 -16 0 -3 0 -14 -8 -24 -17 -10 -10 -33 -30 -50 -45 -17 -16 -28
-28 -25 -28 4 0 1 -6 -5 -13 -6 -8 -8 -17 -4 -21 4 -4 1 -11 -7 -16 -8 -6 -10
-10 -5 -10 6 0 10 -17 10 -37 -1 -21 4 -43 9 -49 7 -6 11 -49 10 -105 -1 -60
3 -97 10 -101 7 -5 3 -8 -9 -9 l-20 0 20 -9 c18 -8 18 -9 2 -9 -12 -1 -15 -5
-11 -13 12 -18 11 -58 -1 -58 -5 0 -3 -5 5 -10 9 -6 11 -10 3 -10 -7 0 -10 -7
-6 -16 5 -13 7 -13 14 -2 7 10 9 10 9 0 0 -7 -10 -17 -22 -22 -13 -5 -18 -9
-11 -9 7 -1 10 -8 6 -18 -5 -12 -3 -14 8 -8 11 7 10 3 -2 -15 -11 -17 -14 -32
-8 -47 5 -13 4 -25 -1 -28 -13 -8 -13 -25 1 -25 5 0 7 5 3 12 -4 7 -3 8 5 4 9
-6 9 -11 0 -22 -6 -8 -8 -14 -4 -14 4 0 2 -7 -5 -15 -9 -11 -9 -15 -1 -15 8 0
9 -5 2 -18 -7 -13 -6 -23 1 -30 9 -9 7 -16 -6 -31 -13 -14 -14 -21 -5 -27 8
-5 10 -3 4 6 -6 9 -4 11 4 5 9 -5 9 -11 3 -17 -6 -6 -8 -17 -5 -24 3 -8 0 -14
-7 -14 -10 0 -10 -3 -1 -14 9 -11 9 -16 0 -21 -8 -6 -7 -10 2 -16 11 -7 11 -9
1 -9 -10 0 -10 -5 -2 -20 8 -15 8 -20 -1 -20 -7 0 -4 -9 7 -22 10 -12 13 -18
7 -14 -9 5 -13 0 -13 -16 0 -13 -3 -34 -7 -47 -5 -19 -3 -22 8 -16 8 5 5 -2
-6 -15 -11 -13 -15 -21 -9 -17 7 4 11 -6 11 -28 0 -22 -4 -32 -11 -28 -6 4 -5
-1 3 -11 11 -13 11 -20 3 -28 -9 -9 -7 -17 6 -32 9 -11 12 -16 6 -13 -7 4 -15
0 -18 -9 -5 -12 -2 -15 11 -10 15 6 15 4 -2 -14 -16 -17 -16 -20 -2 -20 9 0
19 -4 22 -10 4 -6 -1 -7 -12 -3 -16 6 -17 5 -3 -12 8 -10 10 -16 4 -12 -7 4
-14 0 -18 -8 -3 -8 0 -15 7 -15 7 0 8 -3 2 -8 -15 -11 -18 -55 -2 -46 8 5 8 2
-2 -9 -11 -14 -11 -17 0 -17 12 0 12 -2 0 -9 -7 -5 -10 -14 -7 -20 4 -6 2 -11
-3 -11 -6 0 -11 -5 -11 -11 0 -5 4 -8 9 -5 5 3 12 -1 15 -10 3 -8 2 -12 -4 -9
-5 3 -8 -9 -6 -30 1 -19 -2 -35 -8 -36 -6 0 -2 -4 9 -9 18 -8 18 -9 2 -9 -15
-1 -16 -5 -7 -21 8 -15 8 -20 -1 -20 -9 0 -9 -3 0 -14 9 -11 8 -15 -6 -21 -17
-6 -17 -7 1 -21 11 -8 15 -14 9 -14 -6 0 -9 -21 -7 -52 2 -33 -1 -55 -9 -60
-9 -6 -9 -8 1 -8 6 0 12 -9 12 -21 0 -13 -4 -18 -13 -13 -9 6 -9 4 1 -8 7 -8
10 -22 6 -31 -3 -8 0 -18 7 -23 7 -4 10 -3 5 4 -3 6 -2 13 3 16 5 4 8 -2 6
-11 -1 -10 -10 -17 -19 -17 -11 1 -14 -2 -7 -10 9 -10 11 -17 11 -32 0 -4 8 0
18 7 15 13 16 12 3 -3 -7 -10 -17 -16 -21 -13 -4 3 -10 -2 -14 -10 -3 -8 -2
-15 3 -15 4 0 8 -7 8 -15 0 -8 -4 -12 -9 -9 -4 3 -8 -1 -8 -10 0 -8 6 -17 13
-19 8 -4 9 -6 0 -6 -7 -1 -10 -11 -7 -27 3 -19 1 -24 -8 -18 -7 5 -5 -5 6 -20
10 -16 13 -25 7 -22 -6 4 -11 4 -12 -1 -4 -46 -3 -65 4 -70 5 -3 4 -9 -2 -13
-7 -3 -9 -14 -5 -23 3 -9 11 -14 18 -10 6 4 5 -1 -2 -10 -8 -9 -10 -22 -6 -28
4 -7 3 -9 -3 -6 -5 4 -9 -10 -7 -34 1 -24 -3 -39 -10 -39 -6 0 -5 -4 4 -9 8
-6 17 -8 21 -5 4 2 10 0 14 -5 3 -6 -3 -8 -15 -6 -11 2 -22 0 -25 -6 -4 -5 -1
-9 4 -9 6 0 11 -5 11 -11 0 -5 -4 -8 -8 -5 -5 3 -9 -8 -10 -25 -1 -27 1 -29
16 -17 15 11 15 10 -1 -8 -20 -24 -22 -40 -4 -47 9 -4 9 -6 0 -6 -7 -1 -13 -8
-13 -17 0 -8 5 -12 11 -8 6 3 3 -5 -6 -20 -17 -25 -16 -26 1 -27 18 0 18 -1
-1 -9 -11 -5 -14 -9 -7 -9 9 -1 10 -6 4 -18 -5 -10 -8 -28 -6 -41 3 -15 0 -21
-7 -16 -8 5 -8 1 0 -13 7 -14 7 -24 -2 -33 -9 -10 -9 -11 1 -6 16 9 16 -6 0
-23 -10 -11 -10 -13 0 -7 6 4 12 2 12 -3 0 -6 -6 -11 -12 -11 -10 0 -9 -3 1
-9 10 -7 11 -13 1 -31 -8 -15 -8 -20 -1 -16 6 4 11 3 11 -3 0 -5 -5 -13 -10
-16 -8 -5 -8 -11 -1 -19 6 -7 8 -16 4 -20 -10 -10 -10 -76 0 -76 5 0 4 -7 -3
-15 -10 -12 -10 -15 0 -15 9 0 9 -4 -1 -17 -15 -17 -14 -19 4 -42 10 -12 9
-13 -2 -6 -11 6 -13 2 -7 -19 4 -15 3 -25 -2 -22 -14 8 -7 -31 9 -50 9 -11 9
-15 2 -10 -13 7 -16 -4 -15 -72 0 -20 -3 -30 -10 -26 -7 5 -8 2 -2 -7 12 -20
14 -38 3 -45 -5 -3 -5 -13 1 -25 8 -14 7 -19 -1 -19 -9 0 -9 -3 0 -14 9 -11 9
-16 0 -21 -8 -6 -7 -10 2 -16 11 -7 11 -9 1 -9 -10 0 -10 -5 -1 -21 6 -13 7
-19 1 -15 -7 4 -9 -9 -8 -34 2 -24 -2 -40 -8 -40 -7 0 -7 -3 -1 -8 13 -9 16
-42 4 -42 -6 0 -5 -9 1 -20 8 -15 8 -20 -2 -20 -9 0 -9 -3 2 -10 8 -5 10 -10
4 -10 -6 0 -10 -10 -9 -23 1 -12 -2 -30 -6 -39 -5 -9 -6 -19 -1 -22 9 -5 8
-47 -1 -63 -4 -7 -3 -15 3 -18 8 -5 7 -12 -2 -23 -7 -10 -8 -14 -4 -10 5 4 14
0 21 -9 7 -9 21 -17 31 -18 11 0 25 -4 32 -9 6 -4 12 -4 12 1 0 4 20 7 45 6
29 -1 45 2 45 10 0 7 4 6 10 -3 8 -12 10 -12 16 3 3 9 11 14 16 11 7 -4 9 8 6
35 -2 22 -1 41 2 41 3 0 5 31 4 69 0 39 2 68 5 66 3 -2 6 20 5 48 0 29 4 58 9
65 6 8 5 12 -4 12 -10 0 -11 2 -2 8 7 5 9 13 3 21 -4 8 -4 24 0 37 6 15 5 26
-1 30 -7 4 -7 10 0 18 6 7 8 16 4 19 -3 4 -1 7 6 7 9 0 9 5 1 20 -8 14 -8 20
0 20 7 0 7 7 -1 21 -7 14 -7 19 0 15 6 -4 9 6 7 29 -1 19 0 35 4 35 3 0 6 9 6
20 0 14 -5 19 -16 15 -11 -4 -11 -2 2 8 10 8 16 23 13 35 -2 12 1 24 7 28 7 4
6 9 -3 14 -10 7 -10 11 0 24 11 13 11 16 0 16 -10 0 -10 3 -1 12 16 16 15 31
-1 23 -6 -4 -4 0 6 8 14 11 15 16 5 20 -8 4 -9 8 -3 14 6 4 10 38 10 75 0 38
2 68 5 68 3 0 7 21 8 47 5 135 8 159 17 165 6 5 5 8 -4 8 -11 0 -11 3 -1 15
10 12 10 15 0 15 -9 0 -9 4 1 17 12 15 12 16 -1 8 -11 -6 -10 -3 3 12 9 11 14
23 10 27 -9 9 -11 46 -3 46 4 0 5 19 3 42 -3 27 0 44 9 49 10 7 10 9 0 9 -9 0
-10 5 -3 18 6 11 6 24 0 35 -7 11 -6 17 1 17 7 0 8 6 0 19 -7 14 -7 22 1 26 7
5 4 14 -8 28 -13 15 -13 18 -2 9 17 -13 17 -11 22 85 1 17 5 29 10 26 9 -5 4
34 -6 43 -4 4 -3 12 3 18 5 7 10 34 11 61 1 28 6 58 11 67 5 10 4 19 -2 23 -7
4 -6 13 1 27 9 16 8 19 -2 13 -8 -6 -10 -4 -3 6 10 16 15 58 17 141 0 31 3 55
7 53 11 -7 6 40 -4 47 -7 5 -7 8 -1 8 10 0 16 58 19 172 0 32 3 58 7 58 3 0 5
18 4 40 -1 22 1 40 4 40 4 0 6 21 5 48 0 26 4 53 9 60 6 8 5 12 -4 12 -11 0
-11 2 1 10 8 5 10 10 4 10 -6 0 -11 7 -11 15 0 8 4 12 8 9 5 -2 6 13 4 36 -2
22 -1 40 3 40 9 0 8 53 -2 68 -4 7 -4 12 1 12 4 0 8 25 7 55 0 33 4 55 10 55
6 0 5 4 -3 9 -7 5 -9 11 -4 14 5 3 9 28 8 56 0 28 2 51 5 51 3 0 6 28 7 63 2
88 5 106 20 111 7 3 13 1 13 -3 0 -5 14 -8 30 -7 17 1 30 -1 30 -5 0 -4 9 -6
20 -4 11 2 20 1 20 -3 0 -7 16 -11 58 -14 6 -1 12 -6 12 -11 0 -6 3 -8 6 -4 3
3 18 1 33 -5 14 -5 35 -11 46 -13 11 -1 44 -10 74 -18 29 -9 57 -14 61 -12 5
3 10 1 12 -4 1 -6 17 -12 33 -15 17 -2 30 -5 30 -6 0 -1 7 -3 15 -5 8 -2 29
-6 45 -10 17 -3 36 -7 43 -7 6 -1 12 -4 12 -8 0 -4 8 -7 18 -7 17 1 64 -10 92
-20 8 -3 20 -7 25 -8 23 -6 82 -17 113 -22 17 -3 32 -8 32 -12 0 -4 12 -8 28
-9 36 -3 62 -8 92 -20 14 -5 33 -8 42 -7 10 2 18 0 18 -4 0 -4 10 -7 23 -8 52
-3 87 -8 87 -14 0 -4 6 -7 13 -6 48 1 77 -4 71 -14 -5 -8 -1 -8 14 0 12 6 23
7 26 3 2 -4 23 -9 46 -10 22 -2 52 -7 65 -12 16 -6 25 -6 25 0 0 6 9 6 23 1
12 -4 29 -7 38 -6 19 3 59 -26 62 -45 2 -8 6 -21 10 -27 5 -7 5 -13 0 -13 -4
0 -2 -4 5 -9 7 -4 14 -18 15 -29 1 -12 5 -22 9 -22 4 0 8 -9 8 -20 0 -11 5
-20 11 -20 5 0 7 -4 4 -10 -3 -5 -1 -10 5 -10 7 0 10 -6 7 -13 -3 -7 1 -21 9
-31 7 -11 11 -23 8 -27 -3 -5 0 -9 5 -9 6 0 11 -9 11 -20 0 -11 5 -20 11 -20
5 0 8 -4 5 -9 -4 -5 0 -12 6 -14 10 -4 10 -6 0 -6 -10 -1 -10 -5 2 -17 9 -8
14 -20 11 -25 -4 -5 -1 -9 5 -9 6 0 9 -4 6 -9 -4 -5 -1 -11 4 -13 6 -2 12 -13
13 -26 0 -12 4 -22 8 -22 4 0 13 -20 20 -45 7 -25 17 -45 21 -45 4 0 8 -9 8
-19 0 -11 5 -23 11 -26 6 -4 8 -13 5 -21 -3 -9 1 -14 12 -14 13 0 14 -2 3 -9
-10 -7 -10 -10 -1 -13 7 -2 14 -13 15 -24 1 -10 7 -29 13 -41 7 -13 9 -23 5
-23 -4 0 -2 -4 5 -9 7 -4 15 -14 16 -22 8 -38 19 -69 25 -69 7 0 35 -89 33
-102 -1 -5 2 -8 7 -8 5 0 11 -8 15 -17 3 -10 9 -24 12 -32 5 -10 3 -11 -7 -6
-8 5 -6 0 4 -12 9 -11 14 -23 10 -26 -3 -4 -1 -7 5 -7 7 0 12 -9 12 -19 0 -11
4 -22 10 -26 5 -3 6 -13 3 -22 -5 -12 -3 -14 7 -8 9 5 11 4 6 -3 -4 -6 1 -23
10 -37 9 -14 13 -25 8 -25 -4 0 -3 -5 4 -12 7 -7 12 -22 12 -35 0 -13 5 -23
11 -23 5 0 8 -4 4 -9 -3 -5 0 -13 6 -16 5 -4 8 -13 5 -21 -3 -8 -2 -14 2 -14
4 0 12 -11 19 -25 8 -19 8 -23 0 -18 -7 3 -3 -3 7 -15 11 -12 16 -22 13 -22
-3 0 5 -25 19 -56 14 -31 23 -63 20 -71 -3 -8 -1 -11 4 -8 6 3 11 -1 11 -9 2
-19 3 -24 13 -51 8 -21 17 -47 18 -55 1 -3 14 -35 29 -72 15 -36 25 -69 22
-71 -2 -3 2 -16 11 -29 8 -12 15 -26 16 -30 0 -5 0 -9 1 -10 0 -2 2 -14 5 -27
2 -14 9 -30 15 -38 6 -7 9 -13 5 -13 -3 0 1 -16 9 -36 8 -20 12 -40 9 -45 -3
-5 0 -9 7 -9 7 0 9 -3 6 -6 -3 -4 0 -16 8 -26 7 -11 11 -27 8 -34 -3 -8 0 -14
7 -14 6 0 9 -4 5 -10 -3 -5 1 -25 9 -44 8 -19 12 -37 8 -40 -3 -3 0 -6 7 -6 7
0 10 -4 7 -9 -5 -7 6 -48 25 -96 8 -20 28 -93 34 -127 2 -10 7 -24 12 -31 4
-6 8 -16 9 -22 1 -5 7 -28 13 -50 5 -22 16 -64 23 -93 8 -29 16 -50 19 -47 4
3 4 -6 2 -20 -3 -14 -1 -25 4 -25 5 0 10 -12 11 -27 1 -15 7 -30 13 -34 8 -5
8 -8 0 -13 -8 -5 -7 -14 4 -29 18 -26 19 -40 3 -32 -7 4 -6 1 2 -7 8 -7 16
-20 17 -28 2 -19 11 -57 18 -80 7 -22 14 -54 22 -95 3 -16 9 -38 14 -47 7 -12
6 -18 -1 -18 -6 0 -4 -7 5 -16 13 -14 14 -19 3 -25 -11 -7 -11 -9 0 -9 7 0 10
-4 7 -10 -3 -5 -2 -10 2 -10 5 0 10 -10 11 -22 2 -31 9 -66 20 -105 6 -17 8
-34 5 -37 -3 -3 -1 -11 5 -18 6 -7 13 -29 15 -48 3 -19 6 -35 7 -35 2 0 10
-43 11 -65 1 -8 7 -21 13 -29 9 -12 8 -13 -3 -6 -11 6 -12 5 -5 -6 10 -16 12
-29 16 -84 3 -40 34 -89 50 -79 5 3 7 0 6 -7 -2 -6 3 -14 11 -17 10 -3 11 0 5
9 -7 12 -5 12 9 1 16 -14 94 -21 112 -10 6 3 20 4 32 3 12 -1 20 2 17 6 -2 4
1 9 6 11 13 4 16 61 6 103 -4 17 -9 44 -11 60 -1 17 -4 30 -5 30 -1 0 -3 14
-5 30 -3 17 -7 44 -10 60 -6 31 -10 56 -19 115 -9 56 -11 64 -20 79 -7 11 -6
12 5 6 11 -7 12 -6 3 6 -11 12 -23 67 -26 109 0 8 -5 21 -11 28 -6 8 -6 12 3
12 9 0 10 3 1 13 -6 8 -8 17 -4 20 3 4 0 7 -8 7 -11 0 -11 2 1 10 11 7 11 10
2 10 -7 0 -10 5 -7 10 3 6 1 10 -4 10 -6 0 -11 5 -11 11 0 5 5 7 11 3 8 -5 8
-1 0 13 -6 11 -7 23 -4 27 3 3 1 6 -6 6 -7 0 -11 13 -9 34 1 19 -3 40 -9 48
-5 7 -9 23 -8 36 1 12 -1 22 -5 22 -3 0 -6 8 -6 18 -1 9 -5 33 -9 52 -4 19 -8
40 -9 45 -1 6 -6 16 -10 24 -7 10 -5 12 5 7 10 -6 10 -4 -1 6 -8 7 -16 22 -17
33 -8 63 -14 89 -23 100 -8 10 -8 15 1 20 7 5 8 10 1 14 -10 6 -33 88 -48 166
-3 17 -9 32 -13 35 -4 3 -6 12 -6 20 1 8 -4 31 -11 52 -7 20 -10 39 -7 42 4 3
2 6 -4 6 -5 0 -10 6 -10 13 0 6 -4 26 -7 42 -4 17 -8 35 -10 42 -1 7 -5 16 -9
19 -4 4 -7 20 -7 36 0 15 -4 28 -8 28 -4 0 -9 11 -10 24 -1 13 -7 37 -14 52
-6 16 -13 34 -14 39 -1 6 -3 12 -4 15 -3 9 -10 45 -12 63 -1 9 -5 17 -8 17 -3
0 -12 21 -19 47 -22 80 -35 117 -44 130 -5 7 -6 17 -2 23 3 5 2 10 -4 10 -6 0
-8 7 -5 15 4 8 1 15 -5 15 -6 0 -10 3 -10 8 1 4 1 9 -1 12 -1 3 -3 16 -6 29
-2 14 -9 30 -15 38 -6 7 -8 13 -4 13 4 0 1 8 -6 17 -8 9 -9 14 -2 10 6 -4 1
13 -13 38 -13 26 -20 43 -14 40 6 -3 7 1 4 9 -3 9 -10 16 -15 16 -5 0 -8 3 -7
8 1 4 -5 27 -12 52 -7 25 -13 48 -12 53 1 4 -3 7 -9 7 -6 0 -9 7 -5 15 3 8 1
15 -5 15 -6 0 -9 7 -5 15 3 8 1 15 -4 15 -6 0 -10 8 -10 18 0 10 -4 22 -10 28
-5 5 -11 18 -13 29 -1 11 -10 32 -20 46 -9 14 -18 37 -19 52 -1 15 -6 27 -11
27 -5 0 -7 9 -4 20 3 11 2 20 -2 20 -11 0 -32 50 -26 61 4 5 1 9 -4 9 -6 0
-11 8 -11 18 0 9 -7 26 -15 36 -8 11 -15 28 -15 38 0 10 -5 18 -12 18 -6 0 -9
3 -6 6 4 3 -4 29 -17 59 -13 29 -21 56 -18 59 4 3 1 6 -5 6 -7 0 -12 9 -12 20
0 11 -5 20 -11 20 -6 0 -9 7 -5 15 3 8 1 15 -4 15 -6 0 -9 3 -8 8 3 13 -13 52
-22 52 -5 0 -7 9 -5 20 2 11 -1 20 -6 20 -6 0 -7 5 -4 10 3 5 1 10 -4 10 -6 0
-11 9 -11 19 0 11 -4 22 -10 26 -5 3 -6 13 -3 22 4 10 2 14 -4 10 -6 -4 -14 4
-17 18 -4 14 -18 51 -33 83 -14 31 -26 63 -26 70 0 6 -4 12 -8 12 -4 0 -10 7
-13 16 -4 10 -2 13 6 8 7 -4 2 6 -10 23 -12 17 -22 38 -22 47 0 9 -4 16 -8 16
-5 0 -9 7 -9 15 0 8 9 15 19 15 13 0 17 -4 12 -12 -5 -8 -1 -8 10 1 14 12 19
12 26 2 6 -11 8 -11 12 0 4 12 7 12 21 0 10 -8 17 -9 17 -3 0 14 52 11 62 -3
5 -6 8 -5 8 3 0 9 5 10 19 3 10 -6 22 -7 25 -3 12 11 106 9 106 -2 0 -7 3 -8
8 -1 4 6 43 11 87 12 199 4 285 8 285 13 0 5 125 5 145 0 6 -1 13 -2 17 -1 4
0 5 -6 2 -14 -4 -8 -1 -15 6 -15 6 0 8 -5 3 -12 -11 -18 -10 -42 2 -50 6 -5 5
-8 -3 -8 -8 0 -10 -5 -5 -12 11 -19 11 -58 0 -58 -5 0 -5 -6 2 -13 8 -10 7
-17 -2 -27 -9 -9 -9 -11 0 -6 8 4 11 -2 9 -21 -1 -16 2 -34 7 -40 6 -9 6 -13
-2 -13 -7 0 -8 -8 -1 -25 7 -17 6 -25 -1 -25 -8 0 -8 -4 -1 -13 6 -7 9 -28 8
-47 -1 -19 2 -43 6 -52 6 -11 5 -18 -2 -18 -7 0 -8 -6 -2 -17 5 -10 7 -33 5
-51 -2 -24 0 -31 10 -26 9 6 9 4 -1 -8 -9 -11 -10 -23 -2 -42 6 -18 6 -25 0
-21 -14 9 -12 -9 2 -23 8 -8 8 -12 1 -12 -7 0 -8 -11 -3 -33 4 -19 6 -47 5
-63 -1 -16 2 -35 8 -41 6 -9 5 -13 -3 -13 -10 0 -10 -3 0 -15 10 -12 10 -15
-1 -15 -9 0 -10 -3 -4 -8 10 -7 14 -36 15 -135 1 -37 5 -55 12 -51 6 4 5 -3
-2 -16 -9 -18 -9 -24 0 -30 8 -5 9 -10 1 -14 -7 -5 -7 -15 -1 -32 13 -33 12
-37 -2 -28 -7 5 -8 3 -2 -7 8 -13 13 -70 17 -186 1 -29 7 -53 12 -53 6 0 3 -5
-5 -10 -8 -5 -10 -10 -4 -10 8 0 11 -16 10 -41 -1 -22 1 -42 4 -44 4 -2 6 -29
5 -60 -1 -31 2 -58 7 -61 4 -3 3 -15 -3 -26 -6 -11 -7 -23 -3 -27 5 -3 10 -14
12 -25 2 -13 -1 -16 -10 -10 -10 6 -10 5 -2 -7 6 -8 10 -24 9 -37 -1 -12 3
-22 8 -22 5 0 4 -6 -2 -14 -9 -11 -9 -15 1 -19 11 -4 10 -6 0 -6 -7 -1 -11 -5
-8 -9 3 -5 7 -40 8 -78 2 -38 7 -72 13 -76 7 -5 6 -8 0 -8 -9 0 -12 -48 -5
-57 2 -2 3 -11 4 -20 1 -10 5 -24 10 -32 7 -10 6 -12 -4 -6 -10 6 -12 4 -7 -9
4 -10 7 -33 7 -52 0 -24 5 -34 15 -34 13 0 14 -4 5 -21 -11 -19 -10 -20 9 -9
15 8 21 8 21 0 0 -7 8 -9 21 -5 14 5 19 3 15 -3 -3 -6 -1 -14 5 -18 8 -4 9 -3
5 4 -4 7 -4 12 1 13 4 0 22 2 38 5 17 2 38 4 48 5 10 0 15 5 11 11 -5 8 -1 9
11 4 15 -5 16 -4 5 9 -10 12 -10 15 1 15 9 0 10 3 4 8 -13 9 -18 35 -5 27 5
-3 10 -2 10 4 0 5 -5 13 -10 16 -8 5 -8 11 -1 19 6 7 9 15 7 17 -9 11 -16 60
-7 55 6 -4 6 5 0 26 -11 41 -11 41 3 32 7 -5 8 -3 3 6 -4 7 -9 63 -10 125 -1
62 -5 117 -9 124 -4 6 -3 11 3 11 6 0 8 6 6 13 -9 24 -11 226 -2 220 5 -3 5 3
0 13 -11 23 -11 34 1 53 7 10 6 12 -4 6 -9 -6 -12 -4 -8 7 4 8 2 21 -2 29 -5
8 -4 19 3 28 12 15 12 18 -5 39 -8 8 -7 12 3 12 12 0 12 2 0 9 -10 6 -10 10
-1 16 9 6 9 10 -1 16 -12 7 -12 9 0 9 10 0 11 3 2 14 -8 10 -9 16 -1 21 6 3 7
12 3 18 -11 19 -11 47 1 47 6 0 5 4 -3 9 -13 8 -13 12 0 27 9 11 9 15 2 10 -9
-5 -13 -1 -13 11 0 11 6 25 13 32 10 11 9 12 -1 6 -10 -5 -12 0 -9 23 3 17 9
37 13 44 6 10 5 10 -7 1 -12 -10 -14 10 -13 140 0 84 -3 158 -6 166 -4 8 -4
27 0 42 5 17 4 31 -3 38 -8 8 -8 11 0 11 8 0 9 9 3 29 -5 19 -4 33 3 40 6 6 7
11 1 11 -5 0 -10 47 -11 108 0 59 -3 182 -5 275 -3 155 -2 167 14 167 10 0 20
-1 21 -2 2 -2 12 4 22 12 15 12 17 12 10 1 -6 -11 -4 -13 11 -7 19 8 53 13
149 21 28 2 50 4 50 5 0 3 43 10 88 13 26 2 50 7 54 10 3 4 13 1 21 -6 13 -9
14 -9 8 1 -5 9 3 12 31 14 52 2 56 2 71 11 7 5 12 3 12 -5 0 -8 3 -9 8 -3 6 9
22 13 77 20 11 1 21 4 23 5 7 7 29 5 41 -4 10 -8 13 -8 9 0 -4 5 6 15 23 21
18 7 27 8 23 1 -4 -6 2 -5 15 1 11 7 21 9 21 6 0 -3 9 -1 19 5 14 7 22 7 26
-1 5 -7 12 -6 23 4 10 8 25 13 35 12 9 -2 17 2 17 8 0 5 3 7 6 4 4 -3 15 -2
25 3 12 7 19 6 22 -3 4 -9 6 -9 6 1 1 7 6 10 11 7 6 -3 10 -2 10 3 0 5 6 9 13
10 27 2 74 13 108 27 20 8 39 11 43 8 3 -4 6 -1 6 5 0 6 9 9 20 7 11 -2 20 1
20 6 0 6 5 7 10 4 6 -3 10 -1 10 4 0 6 3 10 8 10 4 -1 10 0 15 1 4 1 10 3 15
5 4 1 21 8 37 15 17 7 33 13 38 12 4 -1 7 3 7 9 0 5 4 8 9 4 6 -3 14 2 19 11
5 9 12 15 15 15 4 -1 8 -1 10 0 1 0 10 2 20 4 15 3 16 1 6 -11 -7 -8 -7 -14
-1 -14 5 0 12 -12 15 -27 5 -27 8 -42 24 -108 4 -16 7 -32 8 -35 0 -3 4 -11 9
-18 4 -7 5 -16 2 -19 -3 -3 0 -15 6 -27 6 -11 13 -30 14 -41 11 -69 17 -95 25
-95 4 0 6 -9 4 -20 -2 -11 0 -22 5 -25 5 -3 7 -12 3 -20 -3 -8 0 -15 6 -15 6
0 11 -5 11 -11 0 -5 -6 -7 -12 -3 -10 6 -10 4 0 -8 12 -15 24 -55 25 -85 0 -7
4 -13 8 -13 5 0 6 -13 4 -30 -2 -17 1 -30 7 -30 6 0 8 -9 5 -20 -3 -11 -1 -20
5 -20 6 0 8 -7 4 -15 -3 -8 -2 -15 2 -15 4 0 8 -8 9 -17 3 -48 8 -73 16 -73 5
0 7 -7 4 -15 -4 -8 -2 -17 3 -20 4 -3 7 -17 5 -31 -1 -15 3 -28 12 -31 9 -4
10 -9 4 -17 -6 -7 -6 -18 -1 -26 5 -8 6 -18 4 -22 -3 -4 -1 -8 3 -8 5 0 10
-11 11 -26 1 -14 7 -34 12 -45 7 -12 7 -19 1 -19 -5 0 -4 -12 4 -27 8 -15 12
-30 9 -35 -3 -4 -1 -8 4 -8 5 0 8 -10 7 -22 -1 -13 1 -27 5 -33 4 -5 8 -17 8
-25 0 -8 4 -28 8 -45 3 -16 7 -40 7 -52 1 -13 5 -23 9 -23 4 0 8 -12 8 -27 0
-16 4 -35 10 -43 6 -9 5 -20 -3 -29 -10 -12 -9 -13 2 -6 11 6 13 4 8 -8 -3
-10 -2 -17 4 -17 5 0 7 -11 5 -25 -3 -14 -1 -25 3 -25 4 0 8 -14 9 -32 2 -18
6 -35 10 -38 4 -3 8 -18 10 -35 1 -16 3 -40 4 -52 1 -13 5 -23 8 -23 3 0 7
-19 9 -42 1 -23 5 -45 10 -48 4 -3 7 -14 8 -25 0 -11 3 -36 7 -55 4 -19 10
-46 12 -60 7 -45 13 -75 19 -100 3 -14 8 -43 11 -65 4 -22 11 -43 18 -47 8 -6
8 -8 -1 -8 -9 0 -10 -7 -3 -26 6 -15 13 -43 16 -63 7 -48 11 -71 19 -101 6
-22 14 -85 18 -132 1 -10 4 -18 7 -18 3 0 5 -13 4 -30 -1 -16 2 -30 6 -30 5 0
7 -8 5 -17 -1 -10 2 -24 8 -30 6 -9 6 -13 -3 -13 -9 0 -10 -3 -1 -14 6 -7 9
-21 5 -30 -3 -9 -2 -16 4 -16 5 0 8 -11 7 -25 -2 -14 2 -25 8 -25 8 0 7 -3 -2
-9 -8 -5 -9 -11 -3 -15 6 -4 9 -15 7 -26 -2 -11 -1 -20 4 -20 7 0 10 -24 11
-87 0 -19 6 -33 13 -33 8 0 7 -4 -3 -10 -12 -7 -12 -10 -1 -10 7 0 11 -6 8
-14 -3 -7 0 -19 6 -26 9 -10 9 -11 0 -6 -14 8 -18 -10 -4 -18 4 -3 7 -17 6
-31 -2 -14 2 -25 8 -25 7 0 5 -5 -3 -10 -12 -8 -12 -10 -1 -10 10 0 11 -3 2
-13 -7 -10 -7 -17 0 -24 6 -6 12 -27 13 -45 2 -19 6 -40 10 -46 4 -7 2 -12 -5
-12 -7 0 -8 -4 -2 -12 9 -13 15 -50 16 -115 1 -18 5 -33 9 -33 5 0 4 -9 -2
-20 -8 -15 -8 -20 1 -20 6 0 9 -9 6 -20 -3 -13 0 -20 9 -20 8 0 14 -4 14 -9 0
-8 30 -22 55 -25 6 -1 16 -5 23 -9 6 -5 12 -5 12 0 0 4 14 8 32 7 48 -1 89 17
83 37 -3 10 -2 20 4 23 7 5 8 41 1 41 -4 0 -10 60 -12 118 -2 31 -5 57 -8 57
-3 0 -5 32 -5 71 0 39 -3 73 -7 75 -4 3 -5 11 -2 18 3 8 1 17 -5 21 -8 4 -8
12 -1 25 6 10 7 21 2 24 -8 5 -14 47 -16 118 0 27 -3 48 -6 48 -6 0 -12 48
-14 117 0 24 -4 43 -7 43 -4 0 -5 10 -5 22 1 13 0 27 -2 32 -3 5 -6 27 -7 50
-1 23 -7 51 -13 63 -8 14 -9 24 -2 28 6 4 7 11 4 17 -4 6 -8 23 -10 37 -1 14
-3 26 -4 26 -1 0 -4 14 -5 30 -2 17 -6 44 -9 60 -10 50 -19 118 -20 148 -1 15
-4 27 -9 27 -4 0 -5 11 -3 25 3 13 1 27 -4 30 -5 3 -7 14 -5 25 2 11 1 20 -3
20 -4 0 -8 15 -9 33 -5 65 -9 92 -15 102 -3 6 -5 22 -4 38 1 15 -1 27 -5 27
-4 0 -5 9 -2 20 3 11 1 20 -5 20 -6 0 -9 10 -7 22 3 12 -1 26 -8 30 -8 5 -9 8
0 8 6 0 9 9 6 20 -3 11 -9 20 -15 20 -5 0 -4 8 2 19 6 11 6 22 1 25 -8 5 -13
25 -29 111 -3 17 -5 40 -6 52 0 12 -3 20 -6 18 -4 -3 -8 10 -9 28 -2 18 -3 40
-4 50 -1 9 -4 17 -7 17 -5 0 -9 28 -13 78 0 12 -4 22 -7 22 -3 0 -7 12 -8 28
-1 15 -7 41 -12 57 -6 17 -11 49 -13 72 -1 22 -5 39 -9 37 -4 -3 -7 4 -6 13 0
10 -3 29 -7 43 -3 14 -7 30 -9 37 -1 7 -5 15 -8 19 -4 3 -4 12 -1 20 3 8 0 21
-7 29 -6 8 -9 18 -6 24 3 5 0 12 -6 14 -10 4 -10 6 0 6 10 1 10 5 0 24 -11 21
-16 44 -20 94 -1 12 -6 19 -10 17 -4 -3 -9 9 -9 25 -3 51 -4 56 -10 61 -4 3
-9 21 -12 41 -2 19 -10 45 -16 57 -9 17 -9 22 1 22 6 0 4 6 -7 13 -14 11 -15
16 -5 22 8 5 9 10 1 14 -6 4 -12 19 -13 34 -1 15 -5 27 -8 27 -3 0 -7 14 -8
32 -2 17 -6 36 -10 42 -5 6 -7 21 -6 34 0 12 -2 22 -7 22 -4 0 -6 9 -4 20 2
11 -1 20 -7 20 -5 0 -8 6 -5 14 3 8 3 17 -1 21 -4 4 -7 10 -8 13 0 4 -6 25
-12 46 -6 22 -10 42 -8 44 2 2 -2 15 -9 29 -7 14 -11 32 -8 39 3 8 1 14 -5 14
-5 0 -13 7 -16 16 -3 8 -2 12 4 9 12 -7 14 8 3 19 -5 4 -9 12 -9 17 -1 5 -2
10 -4 12 -2 3 -11 37 -14 57 -1 8 -8 26 -15 39 -8 14 -9 21 -2 17 6 -4 11 -2
11 3 0 6 -5 11 -11 11 -6 0 -9 7 -6 15 4 8 2 17 -3 20 -6 4 -10 19 -10 36 0
16 -4 29 -8 29 -4 0 -9 11 -10 26 -1 14 -6 33 -12 43 -5 10 -6 21 -3 25 3 3 2
6 -4 6 -6 0 -9 8 -6 19 3 10 0 22 -6 25 -5 4 -8 13 -5 20 3 8 1 17 -5 20 -6 4
-8 13 -4 21 3 8 1 15 -4 15 -5 0 -10 7 -11 15 -1 8 -3 22 -4 30 -1 8 -4 15 -8
15 -3 0 -6 8 -7 18 -3 40 -8 62 -13 62 -3 0 -7 8 -8 18 -4 34 -8 52 -15 58
-12 13 -8 36 6 28 6 -4 1 3 -11 16 -19 18 -21 24 -10 31 9 6 9 9 1 9 -7 0 -10
9 -6 23 3 12 6 30 6 40 1 9 4 17 7 17 3 0 6 10 7 23 1 12 4 36 7 52 3 17 7 38
9 47 2 10 6 20 10 24 3 4 2 15 -4 25 -7 15 -6 21 5 25 8 3 14 18 14 32 -1 42
1 54 10 49 4 -3 7 19 7 48 0 30 4 51 9 47 5 -3 7 2 3 11 -3 10 -2 17 2 17 5 0
8 15 7 34 -1 19 2 32 6 30 5 -3 8 7 9 23 0 15 3 37 5 48 10 42 15 71 15 88 0
9 4 17 9 17 5 0 7 9 5 20 -2 11 0 20 5 20 5 0 7 7 4 15 -3 8 -2 20 2 27 5 7 9
22 11 33 1 11 5 34 8 50 3 17 7 40 7 53 1 12 6 22 11 22 4 0 6 4 3 9 -4 5 -2
21 4 35 7 19 6 26 -3 26 -8 0 -9 3 -1 8 16 11 27 44 25 76 -2 17 1 26 7 22 6
-4 8 2 5 14 -3 11 1 28 8 37 12 14 12 16 0 8 -11 -6 -12 -5 -5 6 4 8 10 22 11
31 6 36 8 43 18 51 6 4 4 11 -5 17 -11 7 -11 10 -2 10 7 0 11 4 8 8 -3 5 1 19
7 33 7 13 12 34 11 47 -1 12 2 22 7 22 5 0 6 7 2 16 -3 9 0 20 8 25 12 8 12
11 -1 19 -9 5 -10 10 -3 10 6 0 10 11 8 25 -1 14 2 25 7 25 5 0 7 4 4 8 -2 4
-1 14 4 22 5 9 4 20 -3 29 -10 12 -9 13 1 7 9 -6 12 -3 10 10 -2 12 2 18 10
16 9 -1 11 2 6 10 -11 17 -12 48 -2 42 7 -5 13 33 9 64 -1 6 3 12 8 12 5 0 8
9 6 20 -2 11 1 20 7 20 7 0 7 5 -1 14 -7 8 -8 15 -2 18 5 1 12 19 14 38 3 19
6 35 7 35 2 0 11 53 12 73 1 6 5 12 9 12 5 0 6 6 3 13 -3 8 21 36 55 67 33 29
57 58 54 63 -3 6 -1 7 6 3 6 -4 14 0 17 8 3 9 11 13 17 9 6 -4 7 -1 3 6 -5 7
0 19 10 27 11 9 13 12 5 9 -9 -6 -9 -1 3 17 9 14 13 28 9 31 -3 4 -1 7 6 7 9
0 12 9 9 25 -3 13 0 26 5 28 7 2 7 9 2 18 -5 8 -8 22 -7 32 2 9 -1 17 -6 17
-6 0 -12 10 -15 23 -8 29 -57 95 -57 76 -1 -8 -6 -5 -13 9 -7 12 -16 19 -20
16 -4 -4 -7 -2 -7 5 0 7 -4 10 -9 7 -5 -4 -11 -2 -13 4 -1 5 -15 11 -30 12
-16 1 -28 6 -28 11 0 4 -4 5 -10 2 -5 -3 -10 0 -10 7 0 11 -2 10 -9 0 -7 -11
-9 -10 -14 3 -5 12 -11 13 -25 6 -9 -5 -24 -6 -32 -2 -8 4 -22 7 -30 6 -8 0
-18 4 -22 10 -5 6 -8 5 -8 -3 0 -9 -5 -10 -19 -2 -14 7 -22 7 -26 0 -4 -6 -11
-7 -17 -4 -21 13 -78 14 -78 1 0 -8 -3 -8 -8 -2 -8 11 -412 14 -412 3 0 -4
-13 -3 -30 2 -16 5 -30 6 -30 2z m80 -315 c0 -4 6 -5 13 0 15 9 217 14 218 5
0 -4 2 -15 4 -24 2 -10 -1 -18 -7 -18 -6 0 -8 -9 -5 -20 3 -11 0 -20 -6 -20
-6 0 -7 -3 -4 -6 3 -4 2 -16 -4 -27 -8 -14 -8 -18 0 -13 7 5 9 1 5 -8 -3 -9
-10 -16 -14 -16 -5 0 -7 -11 -6 -25 2 -13 0 -23 -3 -22 -3 1 -16 -4 -27 -11
-12 -6 -25 -8 -29 -4 -3 4 -5 0 -3 -8 2 -11 -5 -15 -24 -14 -15 0 -25 -3 -22
-7 2 -5 -5 -13 -16 -19 -11 -6 -20 -8 -20 -5 0 3 -10 -3 -22 -14 -11 -11 -24
-18 -29 -16 -4 3 -15 -2 -23 -11 -9 -8 -16 -12 -16 -8 0 3 -6 1 -13 -5 -8 -6
-17 -8 -20 -4 -4 3 -7 2 -7 -4 0 -6 -11 -14 -25 -17 -14 -4 -25 -11 -25 -17 0
-6 -4 -8 -9 -4 -5 3 -17 -2 -25 -11 -12 -12 -16 -12 -17 -2 -2 21 6 105 11
118 1 3 2 13 1 23 -1 9 1 17 6 17 4 0 9 15 10 33 3 56 8 87 13 87 3 0 5 15 5
34 -2 40 18 71 39 63 9 -4 17 -3 20 1 6 10 76 9 76 -1z m471 -4 c9 -11 8 -17
-7 -28 -10 -8 -22 -15 -26 -15 -4 0 -17 -8 -28 -17 -11 -10 -23 -17 -26 -15
-3 2 -12 -5 -20 -15 -12 -15 -15 -16 -23 -3 -7 10 -6 17 2 22 7 4 8 8 2 8 -5
0 -3 5 5 10 12 8 12 10 1 10 -11 0 -11 3 -1 15 7 8 9 15 5 15 -4 0 -2 7 5 15
15 18 95 18 111 -2z m29 7 c0 -5 -4 -10 -10 -10 -5 0 -10 5 -10 10 0 6 5 10
10 10 6 0 10 -4 10 -10z m-773 -29 c-9 -11 -9 -13 0 -8 6 4 14 3 18 -3 3 -5 2
-10 -3 -10 -6 0 -13 -7 -16 -16 -4 -10 -2 -13 7 -8 9 6 9 4 1 -7 -6 -8 -12
-21 -12 -29 -1 -8 -3 -28 -7 -45 -3 -16 -7 -45 -10 -64 -2 -19 -10 -38 -17
-43 -10 -6 -10 -8 1 -8 9 0 10 -4 4 -12 -5 -7 -10 -26 -11 -41 -1 -16 -5 -34
-9 -40 -4 -7 -6 -20 -4 -31 1 -10 -1 -16 -6 -13 -4 3 -8 -14 -7 -36 0 -53 -5
-69 -20 -60 -6 4 -5 0 2 -9 11 -14 10 -20 -7 -37 -18 -18 -19 -21 -4 -21 14 0
13 -3 -5 -20 -24 -23 -29 -35 -9 -25 6 4 3 -1 -7 -9 -15 -12 -16 -16 -5 -16
12 0 12 -2 0 -9 -7 -5 -13 -20 -13 -35 0 -14 -3 -24 -7 -22 -3 2 -5 -22 -5
-55 1 -41 -2 -57 -10 -52 -8 5 -8 3 0 -8 13 -15 16 -69 4 -69 -4 0 -7 -10 -7
-22 0 -13 -5 -50 -12 -83 -8 -33 -15 -67 -16 -75 -2 -8 -4 -15 -6 -15 -1 0 -3
-13 -5 -30 -3 -38 -12 -90 -15 -90 -1 0 -3 -9 -4 -20 -5 -35 -10 -50 -20 -57
-6 -5 -5 -8 4 -8 9 0 10 -4 4 -12 -6 -7 -9 -23 -8 -35 1 -13 -2 -23 -6 -23 -5
0 -5 -7 -2 -17 4 -9 2 -14 -3 -11 -5 4 -10 -8 -10 -25 -1 -18 -5 -43 -8 -57
-6 -23 -16 -83 -20 -122 -1 -10 -5 -20 -8 -24 -4 -3 -4 -12 -1 -20 3 -8 1 -14
-5 -14 -5 0 -8 -11 -7 -25 2 -14 0 -27 -5 -30 -4 -2 -6 -16 -5 -30 2 -14 -1
-27 -5 -30 -5 -3 -7 -14 -5 -24 2 -11 -3 -22 -11 -25 -9 -4 -12 -11 -7 -18 11
-18 13 -38 4 -38 -4 0 -7 -13 -6 -30 1 -16 -2 -30 -6 -30 -4 0 -6 -8 -5 -17 2
-10 -2 -21 -7 -25 -7 -4 -6 -12 2 -22 11 -13 11 -17 0 -21 -8 -3 -15 -19 -15
-35 -3 -53 -9 -60 -46 -49 -18 6 -39 11 -45 12 -7 0 -13 3 -13 6 0 3 -17 7
-38 9 -20 1 -39 7 -40 13 -3 6 -9 6 -18 -2 -10 -8 -14 -8 -14 0 0 6 -3 10 -7
10 -5 -1 -20 -1 -35 0 -23 1 -28 6 -28 27 0 17 4 23 13 18 9 -5 9 -4 0 6 -9 9
-9 17 -2 26 7 8 7 14 -1 19 -6 4 -7 13 -1 23 4 9 8 29 7 45 -1 15 3 27 9 27 5
0 3 5 -5 10 -8 5 -10 10 -3 10 6 0 10 11 8 25 -1 14 2 25 8 25 5 0 4 6 -2 14
-7 9 -8 17 -2 20 5 3 8 17 6 31 -1 14 1 25 5 25 4 0 5 12 2 26 -4 21 -2 25 9
19 11 -7 12 -6 4 6 -6 8 -9 28 -7 44 2 17 3 40 4 53 0 12 4 22 8 22 5 0 6 9 3
21 -4 12 0 25 8 30 11 7 11 9 1 9 -8 0 -10 5 -6 12 4 7 9 33 11 58 4 58 7 72
17 89 7 10 6 12 -4 6 -10 -6 -11 -4 -5 11 4 10 8 34 9 52 0 17 3 32 6 32 4 0
5 16 4 35 -2 23 1 33 7 29 7 -4 7 1 0 15 -10 17 -9 22 4 28 10 3 13 8 6 12 -7
5 -7 28 0 76 6 39 11 87 11 108 1 20 4 37 8 37 4 0 6 13 4 30 -2 16 1 32 7 35
7 5 6 12 -2 21 -7 9 -7 14 -1 14 5 0 9 14 8 30 -1 17 1 30 5 30 3 0 4 12 1 26
-3 16 1 30 9 35 12 7 12 9 0 9 -11 0 -11 3 -1 15 9 11 9 15 1 15 -7 0 -9 5 -5
12 4 7 9 26 10 43 1 16 3 30 4 30 1 0 3 23 4 51 2 28 5 55 8 60 3 5 5 21 4 37
-1 17 3 27 12 27 7 0 10 5 7 10 -4 6 -12 7 -18 3 -8 -5 -8 -2 0 9 7 8 10 17 7
21 -3 3 -1 13 4 23 6 11 7 27 1 42 -9 23 -8 24 7 11 16 -13 16 -12 5 9 -10 19
-9 22 6 22 13 0 14 3 5 8 -12 8 -12 45 1 58 3 4 3 12 0 18 -12 18 -12 37 0 29
6 -4 8 0 4 10 -4 10 -1 18 6 18 7 1 21 3 32 4 38 6 170 17 198 17 15 0 27 3
27 7 0 3 32 6 70 6 39 0 70 2 70 5 0 3 9 6 19 6 16 0 18 -3 8 -15z m-560 -55
c3 -3 2 -6 -3 -6 -6 0 -9 -12 -9 -27 1 -16 -4 -34 -9 -42 -9 -12 -8 -13 3 -6
11 6 12 5 5 -6 -11 -18 -16 -39 -15 -68 1 -13 -4 -30 -10 -37 -9 -11 -8 -14 1
-14 9 0 9 -4 3 -12 -6 -7 -9 -21 -8 -30 2 -10 0 -18 -3 -18 -4 0 -8 -19 -9
-43 -2 -36 -4 -58 -16 -137 -2 -8 -7 -21 -11 -29 -7 -10 -6 -12 4 -6 9 6 11 4
4 -6 -4 -8 -10 -32 -11 -54 -2 -21 -9 -43 -16 -47 -6 -4 -7 -8 -2 -8 9 0 12
-42 5 -60 -1 -3 -2 -8 -1 -12 0 -5 -3 -8 -7 -8 -4 0 -7 -18 -5 -40 1 -22 -1
-40 -5 -40 -4 0 -8 -17 -9 -37 -2 -40 -10 -116 -14 -120 -1 -2 -2 -7 -3 -12 0
-5 -4 -13 -8 -17 -4 -4 -3 -13 3 -21 7 -7 7 -13 2 -13 -5 0 -9 -13 -8 -30 1
-16 -3 -30 -8 -30 -5 0 -4 -7 3 -15 7 -8 8 -15 3 -15 -9 0 -14 -33 -17 -97 0
-18 -3 -33 -6 -33 -4 0 -6 -10 -7 -22 -2 -55 -8 -84 -18 -90 -6 -5 -5 -8 3 -8
7 0 10 -5 6 -12 -7 -11 -13 -42 -17 -88 -1 -14 -6 -31 -10 -37 -5 -8 -4 -13 2
-13 7 0 7 -8 1 -24 -5 -13 -6 -27 -3 -30 4 -3 1 -6 -5 -6 -6 0 -9 -7 -5 -16 3
-9 0 -20 -8 -25 -8 -5 -9 -9 -4 -9 6 0 10 -12 9 -27 -1 -16 -3 -28 -4 -28 -3
0 -10 -53 -13 -95 -2 -20 -6 -41 -10 -47 -4 -7 -8 -33 -9 -57 0 -25 -4 -44 -8
-41 -4 3 -6 -9 -5 -25 2 -29 -8 -37 -40 -30 -5 1 -25 3 -43 6 -19 2 -38 6 -42
9 -5 3 -11 1 -15 -5 -4 -6 -12 -7 -18 -3 -12 8 -47 12 -139 15 -27 1 -48 6
-48 11 0 4 -5 5 -10 2 -13 -8 -10 155 3 173 6 7 6 12 0 12 -5 0 -10 7 -10 15
0 8 5 15 10 15 5 0 4 7 -3 15 -7 8 -8 15 -4 15 5 0 10 44 11 98 2 122 8 185
18 202 5 9 4 11 -3 6 -16 -9 -15 7 0 22 9 9 9 12 -1 12 -11 0 -11 3 -1 15 10
12 10 15 0 15 -8 0 -9 4 -4 13 5 6 9 47 9 89 0 43 4 78 8 78 4 0 3 9 -3 20 -6
11 -7 20 -3 20 4 0 8 43 8 95 0 52 3 95 8 95 4 0 7 5 7 11 0 5 -4 8 -9 4 -6
-3 -7 6 -2 22 4 16 7 63 7 105 -1 43 2 78 6 78 4 0 3 14 -2 30 -6 21 -5 30 3
30 7 0 6 4 -3 10 -10 7 -11 10 -2 10 8 0 11 10 7 30 -3 17 -1 39 5 50 8 15 8
20 -1 20 -8 0 -8 4 1 15 10 12 10 15 0 15 -10 0 -10 3 0 15 10 12 10 15 -1 15
-8 0 -6 6 7 16 10 8 13 13 7 9 -9 -4 -13 1 -13 16 0 19 2 20 18 8 16 -13 16
-13 2 5 -19 24 -16 186 3 198 8 5 8 8 1 8 -9 0 -12 35 -6 61 1 4 21 10 45 14
23 4 49 9 57 11 8 2 33 7 55 10 22 3 45 10 52 16 7 6 14 5 18 -2 3 -6 12 -7
18 -3 10 6 35 11 82 16 11 2 25 5 30 9 6 3 25 5 43 4 17 0 32 2 32 5 0 3 16 5
34 4 19 -1 33 2 31 6 -6 8 53 4 62 -5z m-694 -130 c-6 -9 -10 -53 -12 -139 -1
-28 -4 -36 -13 -31 -10 6 -10 4 -2 -7 5 -8 9 -24 7 -36 -2 -13 -4 -33 -6 -45
-2 -13 1 -29 6 -35 6 -8 6 -13 -1 -13 -6 0 -9 -11 -7 -25 1 -14 -1 -25 -4 -25
-3 0 -6 -36 -6 -79 1 -44 -2 -78 -5 -76 -3 2 -6 -29 -7 -68 -3 -117 -8 -182
-18 -196 -6 -10 -4 -12 4 -6 10 5 11 3 4 -11 -5 -11 -9 -52 -8 -91 0 -40 -3
-73 -6 -73 -3 0 -5 -22 -3 -50 1 -35 -2 -48 -10 -43 -7 4 -6 1 1 -9 7 -8 10
-18 6 -21 -6 -6 -8 -38 -14 -175 -1 -29 -6 -55 -11 -58 -5 -3 -4 -12 3 -20 9
-11 9 -14 0 -14 -8 0 -9 -5 -2 -19 6 -10 7 -22 3 -25 -3 -4 -7 -30 -8 -57 -1
-27 -5 -61 -8 -75 -4 -15 -3 -23 3 -20 5 3 7 -3 4 -14 -3 -11 -10 -17 -16 -13
-6 4 -7 1 -1 -8 11 -18 11 -49 1 -71 -5 -11 -4 -18 3 -18 7 0 8 -5 3 -12 -11
-18 -11 -31 1 -47 8 -11 8 -13 -1 -7 -9 5 -13 0 -13 -18 0 -17 -6 -25 -17 -25
-72 -1 -129 -4 -137 -9 -15 -8 -67 -8 -73 1 -2 4 -9 5 -14 2 -13 -9 -48 -15
-96 -17 -24 0 -43 -5 -43 -10 0 -5 -7 -2 -17 7 -16 16 -25 88 -26 203 -1 23
-3 42 -6 42 -3 0 -6 21 -5 47 0 27 -4 51 -10 55 -8 6 -8 8 0 8 8 0 9 13 4 38
-3 21 -5 50 -3 66 3 19 0 26 -8 21 -8 -6 -9 -3 -1 11 7 13 7 25 0 37 -8 15 -7
18 3 12 8 -6 10 -4 4 5 -8 12 -12 44 -18 145 -1 17 -6 33 -12 37 -6 5 -5 8 2
8 9 0 10 7 4 23 -5 13 -5 30 -1 37 5 8 6 19 2 25 -4 5 -7 17 -7 25 0 8 -4 21
-8 28 -5 6 -4 12 1 12 10 0 9 30 -1 47 -4 6 -3 15 3 18 8 5 8 11 0 20 -7 8 -9
23 -5 35 4 12 2 20 -6 20 -8 0 -9 3 0 13 6 8 7 17 3 21 -12 13 -11 86 2 86 6
0 4 5 -5 10 -11 6 -15 21 -13 50 1 22 -2 43 -7 46 -5 3 -6 11 -2 17 11 17 13
37 4 37 -4 0 -7 27 -7 61 1 33 -2 63 -5 64 -3 2 -5 20 -4 39 1 21 -3 36 -9 36
-6 0 -4 5 4 10 8 5 10 10 4 10 -6 0 -10 19 -10 48 1 32 5 46 14 44 6 -1 12 3
12 10 0 6 3 9 6 5 4 -3 19 0 35 9 16 8 29 12 29 8 0 -4 6 -1 13 5 8 6 17 8 20
4 4 -3 7 -2 7 4 0 5 6 10 13 10 20 1 42 8 47 15 3 4 17 10 30 12 14 2 25 5 25
6 0 2 38 11 53 12 6 1 12 5 12 9 0 4 17 10 38 14 52 11 52 11 102 25 25 7 53
14 62 15 9 2 25 8 35 13 10 5 26 8 35 7 10 -2 20 0 22 4 3 4 18 7 35 7 17 0
27 -4 24 -10z m2011 -205 c-7 -13 -11 -28 -8 -33 3 -5 0 -15 -6 -23 -6 -8 -9
-19 -5 -25 3 -5 1 -10 -5 -10 -7 0 -10 -7 -6 -15 3 -8 2 -15 -3 -15 -4 0 -8
-6 -9 -12 -1 -20 -10 -59 -26 -112 -8 -27 -13 -53 -10 -58 3 -4 -3 -8 -13 -9
-10 0 -13 -3 -6 -5 9 -4 8 -13 -1 -37 -8 -18 -11 -38 -9 -44 3 -7 0 -13 -6
-13 -5 0 -8 -9 -6 -20 2 -11 0 -20 -5 -20 -4 0 -7 -8 -6 -17 2 -10 0 -20 -5
-23 -6 -5 -14 -37 -18 -73 -1 -5 -5 -6 -10 -3 -4 3 -6 -6 -3 -19 2 -14 -1 -32
-8 -40 -7 -9 -10 -18 -6 -22 3 -3 -1 -17 -10 -31 -9 -13 -11 -21 -4 -17 8 5 7
-3 -3 -21 -8 -16 -12 -34 -10 -41 2 -6 -1 -14 -6 -18 -6 -3 -11 -16 -11 -29 0
-12 -3 -26 -7 -30 -4 -3 -8 -12 -9 -19 -1 -7 -4 -21 -6 -32 -2 -11 -8 -26 -12
-34 -7 -10 -5 -12 5 -6 10 6 9 3 -2 -11 -9 -10 -15 -29 -14 -41 1 -12 -3 -19
-8 -16 -6 4 -8 -3 -5 -15 4 -12 2 -22 -4 -22 -6 0 -8 -7 -5 -15 4 -8 2 -17 -4
-21 -6 -3 -8 -12 -5 -19 2 -7 -3 -23 -11 -36 -13 -17 -13 -20 -2 -14 11 6 12
5 2 -6 -7 -7 -13 -26 -13 -41 0 -15 -4 -28 -9 -28 -6 0 -8 -9 -6 -21 3 -16 0
-19 -12 -15 -12 5 -13 3 -6 -6 12 -17 11 -38 -2 -38 -5 0 -10 3 -10 8 0 4 -4
12 -8 19 -4 6 -8 24 -9 40 -1 15 -8 35 -15 44 -8 9 -13 20 -12 25 1 5 0 11 -1
14 -1 3 -3 12 -5 20 -8 38 -11 45 -19 52 -6 4 -4 14 5 24 12 15 12 17 0 9 -11
-6 -13 -4 -7 11 5 10 10 30 11 44 2 14 4 25 5 25 2 0 6 18 15 65 3 19 12 58
19 87 8 28 12 54 9 57 -3 2 -1 11 3 18 9 14 14 32 17 63 2 11 5 25 9 30 3 6 4
18 3 28 -2 9 0 17 4 17 4 0 7 10 6 23 -1 12 1 27 5 32 3 6 7 23 8 38 1 16 5
34 9 40 4 7 8 20 9 30 1 9 2 18 4 20 1 1 3 11 5 22 2 11 6 34 10 50 4 17 7 38
8 48 1 9 4 17 7 17 3 0 6 12 7 28 2 15 5 36 7 47 3 11 5 28 5 38 1 12 5 16 14
11 8 -5 8 -2 -2 9 -8 11 -9 17 -3 17 6 0 9 6 6 13 -3 8 2 20 11 27 8 7 15 19
15 26 0 8 6 14 14 14 8 0 21 7 30 15 8 9 17 15 18 14 8 -5 48 14 48 23 0 6 3
8 6 5 4 -3 16 -1 28 5 11 7 24 11 29 10 4 -1 7 5 7 13 0 14 3 14 23 -2 21 -15
22 -20 11 -42z m16 49 c0 -5 -4 -10 -9 -10 -6 0 -13 5 -16 10 -3 6 1 10 9 10
9 0 16 -4 16 -10z m-2830 -90 c-8 -5 -10 -10 -4 -10 6 0 10 -30 10 -80 -1 -44
1 -80 4 -80 3 0 5 -37 5 -83 0 -45 3 -89 7 -98 4 -9 2 -21 -4 -27 -9 -9 -9
-12 1 -12 11 0 11 -3 0 -17 -10 -11 -10 -14 -1 -9 15 9 15 1 1 -26 -6 -11 -7
-18 -2 -15 6 4 10 -21 11 -56 4 -135 9 -194 16 -205 4 -7 3 -12 -1 -12 -5 0
-9 -9 -9 -20 0 -11 4 -20 7 -20 4 0 7 -13 7 -30 -1 -16 -5 -27 -9 -24 -5 3 -6
-2 -3 -10 3 -9 11 -13 17 -9 6 4 7 1 1 -8 -11 -18 -11 -26 -3 -66 5 -22 3 -33
-5 -33 -6 0 -4 -5 4 -10 12 -8 12 -10 1 -10 -9 0 -10 -4 -4 -12 5 -7 8 -32 8
-55 0 -24 4 -43 10 -43 7 0 7 -3 0 -8 -12 -9 -15 -52 -3 -52 5 0 4 -10 -3 -21
-6 -12 -7 -19 -2 -16 8 5 12 -44 17 -215 0 -27 3 -48 6 -48 4 0 5 -84 1 -127
-1 -7 -11 -10 -27 -7 -14 3 -32 0 -39 -6 -10 -8 -15 -8 -20 0 -4 6 -12 7 -18
3 -7 -5 -38 -9 -69 -8 -32 0 -58 -2 -58 -5 0 -3 -12 -5 -27 -4 -16 1 -33 -3
-40 -8 -7 -5 -14 -5 -18 2 -4 7 -12 7 -26 0 -14 -8 -19 -7 -19 2 0 8 -3 9 -8
3 -9 -12 -25 -16 -78 -18 -24 -1 -41 -4 -39 -7 2 -3 -28 -5 -66 -5 -38 0 -69
-2 -69 -5 0 -3 -16 -5 -35 -5 -19 1 -35 -3 -35 -9 0 -6 -4 -6 -11 1 -7 7 -20
8 -34 3 -16 -6 -26 -4 -38 10 -8 10 -13 21 -10 23 3 3 -4 16 -16 28 -11 12
-18 26 -15 31 3 4 -2 11 -10 14 -9 3 -13 11 -10 16 4 6 3 13 -2 17 -15 10 -56
92 -50 98 3 4 -3 13 -14 20 -11 8 -18 18 -15 23 3 4 0 10 -5 12 -6 2 -12 13
-13 25 0 12 -5 19 -9 17 -7 -5 -12 10 -9 29 0 4 -4 7 -9 7 -6 0 -10 6 -10 14
0 8 -5 16 -10 18 -6 2 -12 13 -13 26 0 12 -7 22 -14 22 -7 0 -10 9 -8 20 2 11
0 18 -6 15 -5 -4 -9 -1 -9 5 0 6 -7 18 -15 27 -8 8 -13 19 -10 24 4 5 2 9 -3
9 -9 0 -25 37 -23 53 1 4 -4 7 -10 7 -6 0 -8 7 -5 16 3 8 2 13 -3 10 -5 -3
-14 8 -21 24 -7 16 -18 34 -25 40 -8 6 -11 18 -8 26 3 8 0 14 -6 14 -6 0 -10
3 -10 8 3 18 -2 33 -9 28 -5 -3 -9 0 -10 7 -2 22 -8 42 -16 56 -7 10 -5 12 5
7 8 -4 3 2 -11 14 -14 12 -19 19 -12 15 6 -3 12 -1 12 4 0 6 -4 11 -10 11 -5
0 -6 7 -3 17 4 9 2 14 -3 11 -5 -4 -9 7 -9 23 0 16 3 29 6 29 3 0 5 16 4 35
-1 19 1 35 4 35 3 0 12 9 19 21 10 15 10 19 1 14 -6 -5 -4 6 6 23 10 17 22 29
27 26 8 -5 12 11 9 30 -1 5 4 6 12 3 8 -3 20 3 28 14 7 10 19 19 26 19 7 0 22
8 33 18 11 9 24 17 28 17 4 0 21 9 37 21 31 21 82 39 100 35 6 -2 6 1 2 5 -8
8 57 44 80 44 7 0 13 4 13 9 0 8 37 24 53 22 4 -1 7 3 7 9 0 6 9 10 20 10 11
0 20 5 20 10 0 6 3 9 8 8 4 -1 37 12 73 30 37 18 74 32 84 32 9 0 14 4 10 9
-3 6 4 8 15 6 11 -2 24 3 29 13 5 9 11 16 13 14 2 -1 17 2 33 8 17 6 34 10 39
9 5 0 12 4 16 10 3 6 15 13 26 16 10 2 38 13 61 24 23 12 47 21 52 21 6 0 34
11 63 24 67 30 131 47 98 26z m2430 -101 c0 -5 -6 -7 -12 -3 -9 5 -9 2 1 -9 7
-9 9 -17 4 -17 -5 0 -9 -14 -8 -30 1 -24 -2 -30 -13 -25 -12 4 -12 2 -4 -8 7
-8 9 -17 5 -21 -7 -6 -11 -24 -15 -58 -1 -10 -5 -18 -8 -18 -3 0 -6 -8 -7 -17
-1 -31 -10 -78 -18 -95 -4 -10 -8 -29 -9 -43 0 -14 -3 -25 -6 -25 -3 0 -6 -12
-7 -26 0 -15 -7 -30 -15 -35 -10 -7 -10 -9 0 -9 9 0 10 -5 3 -19 -6 -10 -7
-21 -4 -25 3 -3 1 -6 -4 -6 -6 0 -10 -8 -8 -17 1 -10 0 -22 -4 -28 -6 -11 -10
-27 -13 -62 -1 -12 -6 -19 -10 -17 -5 3 -6 9 -3 14 3 4 -2 11 -11 14 -8 3 -12
10 -9 16 4 6 11 7 17 4 7 -4 8 -2 4 5 -4 6 -11 9 -16 6 -10 -6 -22 23 -14 36
3 5 -1 9 -8 9 -9 0 -9 3 2 10 13 8 13 10 -1 10 -11 0 -15 8 -14 25 2 14 -1 25
-6 25 -5 0 -9 9 -9 21 0 11 -5 30 -11 41 -8 16 -8 19 1 13 9 -6 9 -2 0 14 -9
18 -9 26 2 39 7 9 8 13 2 9 -7 -4 -14 2 -17 13 -3 11 -2 20 1 20 4 0 8 18 9
41 1 47 21 101 34 93 5 -3 6 1 4 8 -7 17 36 56 54 50 8 -3 11 0 7 7 -4 6 -2
11 3 11 6 0 13 0 16 0 3 0 14 9 25 20 12 12 25 18 30 15 6 -4 10 -1 10 5 0 6
4 9 9 6 5 -3 11 1 15 9 6 17 26 20 26 4z m-425 -699 c-3 -5 0 -10 7 -10 10 0
10 -2 1 -8 -10 -7 -10 -12 1 -28 11 -15 12 -22 3 -33 -8 -9 -8 -12 -1 -8 12 7
37 -60 28 -75 -3 -4 -1 -8 5 -8 9 0 38 -84 30 -86 -2 0 2 -8 10 -17 7 -10 10
-17 6 -17 -4 0 -2 -7 5 -15 7 -8 9 -15 5 -15 -5 0 0 -9 9 -19 11 -12 14 -21 7
-26 -7 -4 -5 -14 5 -31 9 -13 12 -24 8 -24 -5 0 -2 -5 6 -10 13 -9 13 -10 0
-10 -13 0 -13 -1 0 -10 9 -6 11 -13 5 -17 -5 -5 -12 -26 -14 -48 -1 -22 -6
-44 -9 -50 -6 -9 -13 -45 -15 -77 -1 -10 -4 -18 -7 -18 -3 0 -6 -8 -7 -18 -1
-10 -9 -46 -18 -80 -8 -35 -13 -67 -10 -72 3 -6 1 -10 -5 -10 -6 0 -9 -4 -5
-9 3 -5 1 -12 -4 -15 -5 -4 -8 -17 -7 -31 3 -27 -19 -41 -39 -25 -6 5 -14 7
-18 4 -3 -3 -16 0 -29 7 -12 7 -36 13 -53 14 -16 1 -32 3 -35 5 -3 1 -8 2 -12
1 -5 0 -8 2 -9 7 0 4 -2 15 -4 25 -2 9 0 17 4 17 4 0 6 15 6 33 -1 17 2 37 7
44 6 7 7 21 3 33 -3 11 -3 20 2 20 8 0 14 35 17 98 0 17 4 32 8 32 3 0 5 14 4
30 -1 17 1 30 4 30 3 0 7 16 8 37 2 20 6 41 10 47 3 6 5 19 3 30 -2 13 1 16
11 10 10 -6 10 -4 -1 9 -7 9 -10 17 -5 17 8 0 13 27 17 103 1 15 4 27 7 27 3
0 6 15 6 33 -1 26 3 32 19 30 19 -1 19 -1 3 11 -10 7 -15 16 -11 19 3 4 7 26
8 49 2 23 8 44 14 46 6 2 11 8 11 13 0 6 -4 7 -10 4 -5 -3 -10 -1 -10 4 0 6 4
11 10 11 5 0 7 7 4 15 -4 8 -1 15 6 15 6 0 8 -4 5 -10z m249 -811 c-2 -4 0
-11 6 -14 8 -5 7 -11 -1 -21 -10 -12 -9 -13 6 -7 14 5 17 3 13 -9 -4 -9 -2
-20 3 -25 5 -5 10 -25 11 -46 2 -20 6 -37 10 -37 4 0 7 -11 6 -24 -2 -23 -16
-25 -43 -6 -5 4 -23 10 -38 14 -19 4 -25 11 -20 19 4 7 8 28 9 48 0 19 3 40 7
46 3 5 9 29 13 52 4 27 10 38 15 30 4 -7 6 -16 3 -20z m-1911 -264 c-3 -9 -8
-14 -10 -11 -3 3 -2 9 2 15 9 16 15 13 8 -4z m92 -45 c-3 -5 -12 -10 -18 -10
-7 0 -6 4 3 10 19 12 23 12 15 0z m-70 -20 c3 -5 1 -10 -4 -10 -6 0 -11 5 -11
10 0 6 2 10 4 10 3 0 8 -4 11 -10z m605 4 c0 -8 -19 -13 -24 -6 -3 5 1 9 9 9
8 0 15 -2 15 -3z m-566 -30 c3 -8 2 -12 -4 -9 -6 3 -10 10 -10 16 0 14 7 11
14 -7z m-23 -21 c13 -16 12 -17 -3 -4 -10 7 -18 15 -18 17 0 8 8 3 21 -13z m4
-26 c4 5 5 2 1 -4 -10 -19 -19 -16 -35 10 -13 21 -13 22 6 4 11 -9 23 -14 28
-10z m-41 -13 c3 -8 2 -12 -4 -9 -6 3 -10 10 -10 16 0 14 7 11 14 -7z m83 -6
c1 -10 -3 -18 -9 -18 -6 0 -8 3 -5 7 4 3 2 11 -3 18 -7 8 -6 12 3 12 7 0 14
-9 14 -19z m87 -7 c14 -15 15 -21 4 -27 -7 -4 -10 -3 -5 1 4 5 0 17 -10 27 -9
10 -14 18 -11 18 3 0 13 -9 22 -19z m-28 -3 c4 -6 3 -8 -4 -4 -6 3 -15 -2 -21
-11 -6 -10 -11 -13 -11 -7 0 9 19 34 26 34 2 0 6 -5 10 -12z m-116 -23 c7 -8
17 -12 23 -8 6 3 7 1 3 -5 -4 -7 -2 -12 5 -12 9 0 9 -3 0 -14 -10 -11 -8 -17
6 -26 15 -9 15 -11 1 -6 -9 2 -19 -1 -21 -8 -4 -9 3 -12 21 -10 14 1 33 -2 42
-7 11 -8 10 -9 -7 -4 -19 5 -22 3 -17 -12 5 -17 5 -17 -6 -1 -10 17 -45 14
-34 -3 3 -5 -3 -6 -12 -2 -11 4 -15 3 -10 -5 3 -6 2 -13 -3 -16 -4 -3 -8 2 -8
12 0 34 -3 43 -13 37 -6 -4 -7 -11 -4 -17 5 -7 2 -8 -5 -3 -9 5 -9 11 -3 17 6
6 8 17 5 24 -3 8 -1 20 4 27 6 6 13 20 17 31 5 14 2 17 -9 12 -8 -3 -15 -1
-15 4 0 15 26 12 40 -5z m129 -36 c-10 -6 -11 -9 -1 -9 6 0 12 -5 12 -12 0 -6
-9 -3 -20 7 -11 10 -20 23 -19 29 0 6 3 6 6 -2 7 -18 23 -4 17 16 -5 14 -3 14
6 -2 10 -15 9 -20 -1 -27z m69 10 c-3 -8 -7 -3 -11 10 -4 17 -3 21 5 13 5 -5
8 -16 6 -23z m-247 -12 c-10 -9 -11 -8 -5 6 3 10 9 15 12 12 3 -3 0 -11 -7
-18z m229 3 c0 -5 -8 -10 -17 -10 -15 0 -16 2 -3 10 19 12 20 12 20 0z m360 0
c0 -5 -5 -10 -11 -10 -5 0 -7 5 -4 10 3 6 8 10 11 10 2 0 4 -4 4 -10z m-466
-20 c-6 -6 -15 -5 -24 1 -13 9 -12 10 3 5 9 -3 17 0 17 6 0 6 3 8 7 5 4 -4 2
-12 -3 -17z m17 -17 c-12 -20 -14 -14 -5 12 4 9 9 14 11 11 3 -2 0 -13 -6 -23z
m106 5 c2 -17 0 -19 -7 -8 -5 8 -6 18 -4 22 8 12 10 10 11 -14z m383 18 c0 -2
-7 -7 -16 -10 -8 -3 -12 -2 -9 4 6 10 25 14 25 6z m56 -8 c3 -4 -2 -5 -13 -4
-10 2 -25 -2 -33 -8 -13 -9 -13 -9 -2 6 12 16 35 18 48 6z m-473 -15 c-4 -10
-2 -14 4 -10 5 3 10 0 10 -7 0 -7 -6 -13 -12 -13 -9 0 -14 30 -6 45 5 10 9 -2
4 -15z m-25 -28 c-1 -13 -6 -21 -10 -19 -4 3 -5 11 -2 18 3 8 1 17 -5 21 -6 3
-11 -1 -11 -11 0 -10 -3 -15 -6 -11 -4 3 -4 13 -1 21 9 23 37 8 35 -19z m396
23 c-5 -8 -2 -9 11 -4 15 5 16 4 5 -9 -17 -20 -29 -19 -25 3 5 23 4 22 11 22
3 0 2 -5 -2 -12z m123 -3 c0 -8 -4 -15 -9 -15 -10 0 -11 14 -1 23 9 10 10 9
10 -8z m-157 -35 c0 -5 -2 -10 -4 -10 -3 0 -8 5 -11 10 -3 6 -1 10 4 10 6 0
11 -4 11 -10z m115 -11 c-6 -32 -12 -34 -12 -4 0 14 3 25 8 25 4 0 6 -10 4
-21z m-32 -6 c-7 -3 -13 -9 -13 -14 0 -6 4 -8 9 -5 5 3 12 -1 15 -10 3 -8 10
-12 16 -9 5 3 10 2 10 -4 0 -5 -9 -9 -19 -8 -11 0 -17 5 -15 9 3 4 1 8 -5 8
-5 0 -12 -5 -14 -10 -3 -6 -4 -5 -3 2 2 7 0 20 -5 28 -5 12 -2 16 14 17 12 0
16 -1 10 -4z m114 -7 c2 -2 -9 -3 -26 -2 -16 0 -27 4 -25 8 4 7 43 3 51 -6z
m-159 -9 c8 -10 6 -13 -11 -14 -12 0 -16 1 -9 4 6 3 10 9 6 14 -8 14 2 11 14
-4z m107 -15 c-3 -3 -11 0 -18 7 -9 10 -8 11 6 5 10 -3 15 -9 12 -12z m-3205
-387 c0 -7 -30 -13 -34 -7 -3 4 4 9 15 9 10 1 19 0 19 -2z m-100 -729 c0 -2
-8 -10 -17 -17 -16 -13 -17 -12 -4 4 13 16 21 21 21 13z m39 -189 c8 -10 7
-14 -2 -14 -8 0 -14 6 -14 14 0 7 1 13 2 13 2 0 8 -6 14 -13z m2 -84 c13 -16
12 -17 -3 -4 -17 13 -22 21 -14 21 2 0 10 -8 17 -17z m4 -203 c3 -6 -1 -7 -9
-4 -18 7 -21 14 -7 14 6 0 13 -4 16 -10z m-22 -27 c-3 -7 -6 -13 -8 -13 -2 0
-5 6 -8 13 -3 8 1 14 8 14 7 0 11 -6 8 -14z m48 -20 c8 -8 8 -16 0 -30 -11
-16 -11 -16 -6 4 7 24 -10 41 -19 18 -6 -17 -26 -20 -26 -4 0 5 5 7 12 3 7 -5
9 -2 5 8 -6 18 16 19 34 1z m-17 -49 c3 -8 2 -12 -4 -9 -6 3 -10 10 -10 16 0
14 7 11 14 -7z m-14 -24 c0 -5 -4 -10 -10 -10 -5 0 -10 5 -10 10 0 6 5 10 10
10 6 0 10 -4 10 -10z m18 -26 c0 -17 -3 -22 -8 -13 -5 6 -6 18 -3 26 8 19 11
16 11 -13z m-47 -1 c13 -16 12 -17 -3 -4 -10 7 -18 15 -18 17 0 8 8 3 21 -13z
m26 -29 c-3 -3 -11 -6 -19 -8 -7 -1 -20 -6 -28 -11 -12 -7 -13 -6 -3 6 6 8 22
15 34 16 11 1 19 0 16 -3z m-61 -66 c4 -7 4 -10 -1 -6 -4 4 -15 2 -24 -5 -14
-11 -14 -10 -2 6 16 20 18 21 27 5z m81 -43 c0 -8 -4 -12 -9 -9 -5 3 -6 10 -3
15 9 13 12 11 12 -6z m0 -40 c0 -8 -4 -12 -9 -9 -5 3 -6 10 -3 15 9 13 12 11
12 -6z m-53 -33 c3 -5 -1 -9 -9 -9 -8 0 -15 4 -15 9 0 4 4 8 9 8 6 0 12 -4 15
-8z m39 -29 c-3 -7 -9 -10 -14 -7 -14 8 -11 21 5 21 8 0 12 -6 9 -14z m-66
-18 c0 -8 -4 -12 -9 -9 -5 3 -6 10 -3 15 9 13 12 11 12 -6z m39 3 c4 -7 3 -8
-4 -4 -8 5 -12 -1 -12 -15 0 -16 3 -19 13 -11 9 8 17 8 27 0 13 -8 12 -9 -2
-5 -9 3 -22 0 -28 -8 -9 -11 -7 -16 8 -24 11 -6 23 -7 27 -3 5 4 5 1 1 -6 -6
-11 -13 -10 -33 3 -13 9 -30 14 -36 12 -7 -2 0 -10 15 -17 26 -12 30 -30 7
-30 -6 0 -8 4 -5 9 3 5 0 11 -8 14 -8 3 -17 -1 -20 -9 -9 -23 -7 -26 7 -18 6
4 8 3 4 -1 -14 -16 -36 -14 -30 3 5 11 3 13 -7 7 -9 -5 -11 -4 -6 4 4 6 12 9
17 6 8 -6 13 9 10 28 -1 5 7 11 18 14 12 3 17 11 14 19 -5 14 2 44 11 44 3 0
8 -5 12 -12z m21 -123 c0 -8 -4 -12 -9 -9 -4 3 -8 9 -8 15 0 5 4 9 8 9 5 0 9
-7 9 -15z m43 11 c0 -3 -4 -8 -10 -11 -5 -3 -10 -1 -10 4 0 6 5 11 10 11 6 0
10 -2 10 -4z m-70 -31 c0 -2 -9 -3 -19 -2 -11 0 -18 5 -15 9 4 6 34 0 34 -7z
m0 -34 c0 -11 -20 -36 -21 -26 0 6 -2 18 -4 27 -2 11 2 15 11 11 8 -3 14 -8
14 -12z m2 -32 c14 20 16 20 22 4 4 -9 4 -14 0 -11 -3 4 -13 1 -21 -7 -21 -21
-28 -19 -42 13 l-12 27 19 -24 19 -24 15 22z m-81 -22 c-10 -9 -11 -8 -5 6 3
10 9 15 12 12 3 -3 0 -11 -7 -18z m40 -14 c13 -16 12 -17 -3 -4 -10 7 -18 15
-18 17 0 8 8 3 21 -13z m57 3 c-25 -19 -22 -29 5 -16 20 10 20 10 5 -3 -19
-15 -25 -32 -8 -22 6 3 10 1 10 -5 0 -7 -6 -10 -14 -7 -7 3 -19 0 -26 -6 -10
-9 -11 -9 -6 0 3 6 -2 16 -11 22 -10 6 -13 11 -7 11 5 0 16 -6 23 -12 11 -11
12 -9 7 9 -5 15 -1 25 11 32 25 15 31 13 11 -3z m57 -16 c3 -6 -1 -7 -9 -4
-18 7 -21 14 -7 14 6 0 13 -4 16 -10z m-108 -52 c-3 -8 -6 -5 -6 6 -1 11 2 17
5 13 3 -3 4 -12 1 -19z m66 -11 c-3 -5 -11 -6 -19 -3 -8 3 -14 -1 -14 -11 0
-9 -3 -14 -6 -10 -12 12 4 33 24 33 11 0 18 -4 15 -9z m-59 -15 c3 -5 -1 -9
-9 -9 -8 0 -12 4 -9 9 3 4 7 8 9 8 2 0 6 -4 9 -8z m82 -4 c4 -7 3 -8 -4 -4 -7
4 -12 2 -12 -5 0 -7 -3 -10 -6 -6 -6 5 3 27 11 27 2 0 7 -5 11 -12z m-96 -32
c0 -2 -8 -10 -17 -17 -16 -13 -17 -12 -4 4 13 16 21 21 21 13z m70 -6 c0 -5
-4 -10 -10 -10 -5 0 -10 5 -10 10 0 6 5 10 10 10 6 0 10 -4 10 -10z m15 -35
c-2 -29 -11 -43 -12 -17 -1 18 4 42 10 42 1 0 2 -11 2 -25z m-84 -18 c-10 -9
-11 -8 -5 6 3 10 9 15 12 12 3 -3 0 -11 -7 -18z m50 -10 c-10 -9 -11 -8 -5 6
3 10 9 15 12 12 3 -3 0 -11 -7 -18z m-30 -24 c13 -16 12 -17 -3 -4 -10 7 -18
15 -18 17 0 8 8 3 21 -13z m40 -20 c13 -16 12 -17 -3 -4 -10 7 -18 15 -18 17
0 8 8 3 21 -13z m-71 -9 c0 -8 -19 -13 -24 -6 -3 5 1 9 9 9 8 0 15 -2 15 -3z
m-5 -143 c3 -5 2 -12 -3 -15 -5 -3 -9 1 -9 9 0 17 3 19 12 6z m20 -61 c3 -5 1
-10 -4 -10 -6 0 -11 5 -11 10 0 6 2 10 4 10 3 0 8 -4 11 -10z m-18 -45 c0 -8
-4 -12 -9 -9 -5 3 -6 10 -3 15 9 13 12 11 12 -6z m3 -30 c0 -7 -30 -13 -34 -7
-3 4 4 9 15 9 10 1 19 0 19 -2z m-22 -50 c-3 -3 -9 2 -12 12 -6 14 -5 15 5 6
7 -7 10 -15 7 -18z m42 21 c0 -2 -8 -10 -17 -17 -16 -13 -17 -12 -4 4 13 16
21 21 21 13z m0 -52 c0 -8 -19 -13 -24 -6 -3 5 1 9 9 9 8 0 15 -2 15 -3z m60
-4 c0 -5 -2 -10 -4 -10 -3 0 -8 5 -11 10 -3 6 -1 10 4 10 6 0 11 -4 11 -10z
m-85 -80 c3 -5 1 -10 -4 -10 -6 0 -11 5 -11 10 0 6 2 10 4 10 3 0 8 -4 11 -10z
m45 -4 c-7 -7 -13 -7 -20 0 -6 6 -3 10 10 10 13 0 16 -4 10 -10z m-4 -58 c3
-4 -1 -5 -10 -4 -8 1 -18 5 -22 8 -3 4 1 5 10 4 8 -1 18 -5 22 -8z"/>
<path d="M3820 4672 c0 -6 5 -14 10 -17 8 -5 8 -11 0 -20 -8 -9 -8 -15 0 -20
5 -3 10 -5 11 -3 8 32 6 48 -6 58 -10 8 -15 9 -15 2z"/>
<path d="M3804 4635 c-3 -8 1 -24 10 -37 9 -12 16 -18 16 -12 0 5 -5 15 -12
22 -8 8 -8 15 2 27 9 11 9 15 1 15 -6 0 -14 -7 -17 -15z"/>
<path d="M1073 2475 c0 -8 4 -12 9 -9 5 3 6 10 3 15 -9 13 -12 11 -12 -6z"/>
<path d="M4525 89 c-4 -6 -5 -12 -2 -15 2 -3 7 2 10 11 7 17 1 20 -8 4z"/>
</g>
</svg>
